<?xml version="1.0" encoding="utf-8"?>
<!-- Generator: Adobe Illustrator 27.5.0, SVG Export Plug-In . SVG Version: 6.00 Build 0)  -->
<svg version="1.1" xmlns="http://www.w3.org/2000/svg" xmlns:xlink="http://www.w3.org/1999/xlink" x="0px" y="0px"
	 viewBox="0 0 500 500" style="enable-background:new 0 0 500 500;" xml:space="preserve">
<g id="BACKGROUND">
	<rect y="0.679" style="fill:#FFFFFF;" width="500" height="500"/>
	<g>
		<defs>
			<rect id="SVGID_1_" y="0.679" width="500" height="500"/>
		</defs>
		<clipPath id="SVGID_00000072979882902294118820000004842189633644398259_">
			<use xlink:href="#SVGID_1_"  style="overflow:visible;"/>
		</clipPath>
		<g style="opacity:0.3;clip-path:url(#SVGID_00000072979882902294118820000004842189633644398259_);">
			<g>
				<polygon style="fill:#CCEAFF;" points="252.099,240.226 227.977,-149.794 276.221,-149.794 				"/>
				<polygon style="fill:#CCEAFF;" points="252.099,224.598 227.977,614.618 276.221,614.618 				"/>
			</g>
			<g>
				<polygon style="fill:#CCEAFF;" points="259.913,232.412 -130.106,256.534 -130.106,208.29 				"/>
				<polygon style="fill:#CCEAFF;" points="244.285,232.412 634.305,256.534 634.305,208.29 				"/>
			</g>
			<g>
				<polygon style="fill:#CCEAFF;" points="257.624,237.938 -35.218,-20.792 -1.105,-54.905 				"/>
				<polygon style="fill:#CCEAFF;" points="246.573,226.887 505.303,519.729 539.416,485.615 				"/>
			</g>
			<g>
				<polygon style="fill:#CCEAFF;" points="257.624,226.887 -1.105,519.729 -35.218,485.615 				"/>
				<polygon style="fill:#CCEAFF;" points="246.573,237.938 539.416,-20.792 505.303,-54.905 				"/>
			</g>
			<g>
				<polygon style="fill:#CCEAFF;" points="255.116,239.62 82.242,-110.825 126.744,-129.457 				"/>
				<polygon style="fill:#CCEAFF;" points="249.081,225.204 377.454,594.281 421.955,575.649 				"/>
			</g>
			<g>
				<polygon style="fill:#CCEAFF;" points="259.307,229.395 -91.139,402.268 -109.77,357.767 				"/>
				<polygon style="fill:#CCEAFF;" points="244.892,235.43 613.968,107.057 595.337,62.556 				"/>
			</g>
			<g>
				<polygon style="fill:#CCEAFF;" points="259.752,230.835 -117.378,333.158 -127.112,285.906 				"/>
				<polygon style="fill:#CCEAFF;" points="244.446,233.989 631.311,178.918 621.576,131.666 				"/>
			</g>
			<g>
				<polygon style="fill:#CCEAFF;" points="259.329,235.374 -110.713,109.813 -92.421,65.171 				"/>
				<polygon style="fill:#CCEAFF;" points="244.868,229.449 596.618,399.652 614.911,355.011 				"/>
			</g>
			<g>
				<polygon style="fill:#CCEAFF;" points="255.061,225.182 129.5,595.224 84.858,576.932 				"/>
				<polygon style="fill:#CCEAFF;" points="249.136,239.643 419.34,-112.107 374.698,-130.4 				"/>
			</g>
			<g>
				<polygon style="fill:#CCEAFF;" points="253.59,240.083 155.501,-138.171 202.858,-147.375 				"/>
				<polygon style="fill:#CCEAFF;" points="250.608,224.742 301.339,612.199 348.697,602.995 				"/>
			</g>
			<g>
				<polygon style="fill:#CCEAFF;" points="258.577,236.782 -78.248,38.676 -51.27,-1.32 				"/>
				<polygon style="fill:#CCEAFF;" points="245.621,228.042 555.468,466.144 582.446,426.148 				"/>
			</g>
			<g>
				<polygon style="fill:#CCEAFF;" points="256.469,225.934 58.362,562.759 18.367,535.78 				"/>
				<polygon style="fill:#CCEAFF;" points="247.73,238.89 485.831,-70.957 445.835,-97.935 				"/>
			</g>
			<g>
				<polygon style="fill:#CCEAFF;" points="256.436,238.912 19.878,-72.115 60.007,-98.894 				"/>
				<polygon style="fill:#CCEAFF;" points="247.762,225.913 444.191,563.718 484.32,536.938 				"/>
			</g>
			<g>
				<polygon style="fill:#CCEAFF;" points="258.599,228.075 -52.428,464.633 -79.207,424.504 				"/>
				<polygon style="fill:#CCEAFF;" points="245.6,236.749 583.405,40.32 556.626,0.191 				"/>
			</g>
			<g>
				<polygon style="fill:#CCEAFF;" points="259.762,233.941 -127.438,181.285 -117.999,133.973 				"/>
				<polygon style="fill:#CCEAFF;" points="244.436,230.883 622.197,330.851 631.637,283.539 				"/>
			</g>
			<g>
				<polygon style="fill:#CCEAFF;" points="253.628,224.749 200.972,611.95 153.66,602.511 				"/>
				<polygon style="fill:#CCEAFF;" points="250.57,240.075 350.538,-137.687 303.227,-147.126 				"/>
			</g>
		</g>
	</g>
</g>
<g id="OBJECTS">
	<g>
		<defs>
			<rect id="SVGID_00000174588068867844498690000015655424870273416610_" y="0.679" width="500" height="500"/>
		</defs>
		<clipPath id="SVGID_00000005236944021052870450000012260163845113673104_">
			<use xlink:href="#SVGID_00000174588068867844498690000015655424870273416610_"  style="overflow:visible;"/>
		</clipPath>
		<g style="clip-path:url(#SVGID_00000005236944021052870450000012260163845113673104_);">
			<path style="fill:#ED815C;" d="M317.703,284.566c0,0,21.372,16.017,27.028,23.051c5.656,7.034,13.642,43.853,13.642,43.853
				l-36.693-16.824L317.703,284.566z"/>
			<g>
				<path style="fill:#ED815C;" d="M180.273,278.322c0,0-17.28,0.91-14.552,11.823c2.729,10.914,10.005,14.552,10.005,14.552
					L180.273,278.322z"/>
				<path style="fill:#ED815C;" d="M179.362,308.335l-22.736,13.642c0,0,8.185,20.918,18.189,10.004
					C184.819,321.067,179.362,308.335,179.362,308.335z"/>
				<path style="fill:#ED815C;" d="M180.273,333.8l-23.646,13.642c0,0,8.185,20.918,18.189,10.004
					C184.819,346.533,180.273,333.8,180.273,333.8z"/>
				<path style="fill:#ED815C;" d="M181.183,367.451l-20.919,7.275c0,0,8.186,20.918,18.19,10.004
					C188.457,373.817,181.183,367.451,181.183,367.451z"/>
			</g>
			<path style="fill:#ED815C;" d="M238.824,414.388c0,0,40.337,52.522,67.371,61.533c0,0,6.209,4.679,17.794,22.701
				c11.586,18.023,115.861,7.725,115.861,7.725s-65.854-64.924-81.303-88.097C347.393,401.518,238.824,414.388,238.824,414.388z"/>
			<g>
				<path style="fill:#F8CDEB;" d="M235.416,210.745"/>
				<path style="fill:#606060;" d="M307.803,421.426H197.104c-12.659,0-23.017-10.357-23.017-23.017V113.941
					c0-12.659,10.357-23.017,23.017-23.017h110.699c12.659,0,23.017,10.357,23.017,23.017v284.468
					C330.819,411.068,320.462,421.426,307.803,421.426z"/>
				<path style="fill:#FFFFFF;" d="M313.821,410.752H191.084c-6.715,0-12.209-5.494-12.209-12.21V113.806
					c0-6.714,5.494-12.209,12.209-12.209h122.737c6.715,0,12.21,5.495,12.21,12.209v284.737
					C326.031,405.258,320.536,410.752,313.821,410.752z"/>
				<rect x="183.571" y="148.252" style="fill:#CCEAFF;" width="137.682" height="119.848"/>
				<path style="fill:#BA4567;" d="M277.628,89.031c0,0,7.572,4.732,10.979,23.472c3.407,18.74-6.436,52.624,5.3,61.898
					c11.736,9.275,11.548,21.957,5.489,21.957c-6.057,0-71.741-3.407-74.58-14.196c-2.839-10.79,0.379-67.766,0.379-67.766
					L277.628,89.031z"/>
				<g>
					<path style="fill:#ED815C;" d="M245.563,145.98l-7.605,44.364c0,0,6.971,11.725,15.844,10.457
						c8.873-1.267,14.577-9.189,14.577-9.189l-7.605-49.435L245.563,145.98z"/>
					<g>
						<defs>
							<path id="SVGID_00000044886252609060355600000013109506579937301653_" d="M245.563,145.98l-7.605,44.364
								c0,0,6.971,11.725,15.844,10.457c8.873-1.267,14.577-9.189,14.577-9.189l-7.605-49.435L245.563,145.98z"/>
						</defs>
						<clipPath id="SVGID_00000052785268003974865820000016304470437389883050_">
							<use xlink:href="#SVGID_00000044886252609060355600000013109506579937301653_"  style="overflow:visible;"/>
						</clipPath>
						<path style="clip-path:url(#SVGID_00000052785268003974865820000016304470437389883050_);fill:#606060;" d="M242.023,156.207
							c2.739,3.561,14.138,9.78,26.572,10.409l-1.643-10.683L242.023,156.207z"/>
					</g>
					<path style="fill:#ED815C;" d="M282.565,116.192c0,24.152-12.877,43.731-28.763,43.731c-15.885,0-28.763-19.579-28.763-43.731
						c0-24.152,12.243-28.52,28.129-28.52C269.054,87.672,282.565,92.04,282.565,116.192z"/>
					<path style="fill:#ED815C;" d="M232.141,123.905c2.336,4.793,1.419,10.05-2.049,11.74c-3.468,1.69-8.174-0.826-10.51-5.619
						c-2.337-4.794-1.419-10.05,2.048-11.741C225.098,116.595,229.804,119.111,232.141,123.905z"/>
					<path style="fill:#ED815C;" d="M275.464,123.905c-2.337,4.793-1.42,10.05,2.048,11.74c3.468,1.69,8.174-0.826,10.51-5.619
						c2.337-4.794,1.419-10.05-2.048-11.741C282.506,116.595,277.8,119.111,275.464,123.905z"/>
					<g>
						<path style="fill:#BA4567;" d="M249.596,139.474c0,0,6.815-2.926,12.314-1.84c0,0-0.064,13.242-5.291,14.052
							C249.898,152.727,249.596,139.474,249.596,139.474z"/>
						<g>
							<path style="fill:#606060;" d="M252.884,119.341c0.154,0.553,0.268,1.133,0.325,1.707c0.026,0.288,0.081,0.578,0.085,0.867
								l0.025,0.87c0.033,0.584-0.027,1.161-0.063,1.742c-0.037,0.583-0.107,1.161-0.221,1.733
								c-0.048,0.288-0.107,0.574-0.166,0.859c-0.065,0.284-0.104,0.576-0.191,0.854c-0.162,0.561-0.343,1.118-0.531,1.67
								c-0.101,0.274-0.166,0.561-0.295,0.824c-0.117,0.268-0.245,0.532-0.374,0.795c-0.259,0.524-0.501,1.055-0.773,1.568
								l-0.479-0.846c1.633,0.23,3.262,0.52,4.878,0.962c-1.665,0.191-3.318,0.227-4.968,0.206l-0.763-0.01l0.284-0.836
								c0.18-0.53,0.391-1.043,0.584-1.563c0.098-0.259,0.196-0.518,0.306-0.771c0.116-0.251,0.169-0.527,0.256-0.789
								c0.155-0.532,0.319-1.06,0.5-1.584c0.093-0.261,0.135-0.537,0.205-0.805c0.063-0.27,0.126-0.54,0.201-0.807
								c0.162-0.533,0.261-1.08,0.365-1.627l0.177-0.82c0.067-0.273,0.084-0.551,0.142-0.827c0.097-0.553,0.196-1.109,0.268-1.67
								C252.743,120.48,252.819,119.921,252.884,119.341z"/>
						</g>
						<path style="fill:#FFFFFF;" d="M249.596,139.474c0,0,3.672,2.072,12.314-1.84c0,0-1.127,12.349-6.428,12.349
							C250.181,149.983,249.596,139.474,249.596,139.474z"/>
						<g>
							<path style="fill:#606060;" d="M234.805,113.177c0,0,0.53-0.757,1.627-1.585c0.55-0.406,1.227-0.85,2.028-1.191
								c0.395-0.183,0.82-0.339,1.266-0.467c0.439-0.145,0.918-0.197,1.383-0.285c0.48-0.006,0.956-0.086,1.431-0.013
								c0.475,0.044,0.937,0.108,1.367,0.261c0.216,0.067,0.431,0.124,0.634,0.199c0.195,0.093,0.381,0.2,0.563,0.295
								c0.179,0.098,0.353,0.194,0.521,0.287c0.16,0.104,0.294,0.238,0.431,0.347c0.269,0.23,0.518,0.43,0.702,0.643
								c0.178,0.22,0.32,0.422,0.438,0.584c0.231,0.326,0.348,0.516,0.348,0.516s-0.208-0.109-0.544-0.306
								c-0.167-0.1-0.369-0.216-0.586-0.36c-0.23-0.128-0.515-0.226-0.793-0.368c-0.275-0.152-0.601-0.247-0.938-0.347
								c-0.169-0.05-0.337-0.111-0.512-0.157c-0.185-0.02-0.365-0.06-0.551-0.09c-0.364-0.096-0.759-0.074-1.15-0.1
								c-0.391-0.037-0.797,0.043-1.197,0.048c-0.401,0.073-0.808,0.107-1.202,0.207c-0.395,0.097-0.792,0.167-1.164,0.299
								c-0.759,0.215-1.453,0.493-2.063,0.72C235.639,112.802,234.805,113.177,234.805,113.177z"/>
						</g>
						<g>
							<path style="fill:#606060;" d="M272.195,113.177c0,0-0.834-0.375-2.036-0.866c-0.61-0.227-1.306-0.505-2.064-0.72
								c-0.373-0.131-0.771-0.202-1.165-0.299c-0.395-0.1-0.801-0.134-1.202-0.207c-0.4-0.005-0.807-0.085-1.197-0.048
								c-0.392,0.026-0.786,0.003-1.15,0.1c-0.187,0.031-0.366,0.07-0.551,0.09c-0.176,0.046-0.344,0.106-0.512,0.157
								c-0.337,0.1-0.663,0.194-0.938,0.347c-0.277,0.143-0.564,0.24-0.793,0.368c-0.217,0.144-0.419,0.26-0.586,0.36
								c-0.336,0.197-0.544,0.306-0.544,0.306s0.116-0.19,0.348-0.516c0.117-0.162,0.26-0.363,0.439-0.584
								c0.185-0.213,0.434-0.413,0.701-0.643c0.138-0.11,0.271-0.244,0.432-0.348c0.168-0.092,0.342-0.188,0.521-0.287
								c0.181-0.095,0.366-0.202,0.563-0.295c0.203-0.074,0.417-0.131,0.634-0.198c0.431-0.153,0.893-0.216,1.367-0.261
								c0.475-0.073,0.951,0.006,1.431,0.013c0.465,0.088,0.943,0.14,1.383,0.285c0.445,0.128,0.872,0.284,1.267,0.467
								c0.801,0.341,1.479,0.785,2.028,1.191C271.664,112.42,272.195,113.177,272.195,113.177z"/>
						</g>
						<path style="fill:#F4947A;" d="M242.534,128.994c0,3.624-2.936,6.561-6.561,6.561c-3.623,0-6.561-2.937-6.561-6.561
							c0-3.623,2.938-6.56,6.561-6.56C239.598,122.434,242.534,125.371,242.534,128.994z"/>
						<path style="fill:#F4947A;" d="M278.216,128.994c0,3.624-2.938,6.561-6.561,6.561c-3.622,0-6.56-2.937-6.56-6.561
							c0-3.623,2.938-6.56,6.56-6.56C275.278,122.434,278.216,125.371,278.216,128.994z"/>
						<g>
							<path style="fill:#606060;" d="M243.707,120.558c0,1.122-0.614,2.03-1.371,2.03c-0.757,0-1.37-0.908-1.37-2.03
								c0-1.121,0.613-2.03,1.37-2.03C243.093,118.528,243.707,119.437,243.707,120.558z"/>
							<g>
								<path style="fill:#606060;" d="M237.12,119.507c0,0,0.406-0.469,1.205-0.919c0.192-0.129,0.418-0.228,0.658-0.332
									c0.241-0.099,0.49-0.234,0.767-0.31c0.276-0.072,0.561-0.162,0.855-0.226c0.292-0.082,0.597-0.122,0.903-0.143
									c0.307-0.019,0.613-0.037,0.915-0.055c0.302-0.038,0.599,0.054,0.884,0.074c0.286,0.032,0.56,0.082,0.816,0.126
									c0.262,0.023,0.493,0.128,0.707,0.211c0.86,0.329,1.376,0.627,1.376,0.627s-0.628,0.022-1.483-0.063
									c-0.216-0.019-0.443-0.056-0.692-0.035c-0.247,0.008-0.505,0.02-0.77,0.013c-0.265,0.006-0.537-0.026-0.813,0.012
									c-0.275,0.027-0.556,0.055-0.835,0.083c-0.282,0.007-0.563,0.032-0.832,0.098c-0.271,0.056-0.545,0.085-0.809,0.126
									c-0.261,0.047-0.509,0.117-0.75,0.164c-0.238,0.058-0.475,0.09-0.68,0.156c-0.419,0.114-0.777,0.197-1.024,0.276
									C237.266,119.456,237.12,119.507,237.12,119.507z"/>
							</g>
							<g>
								<path style="fill:#606060;" d="M235.63,117.756c0,0,0.066,0.014,0.176,0.049c0.11,0.034,0.282,0.032,0.456,0.073
									c0.167,0.053,0.389,0.048,0.623,0.066c0.231,0.017,0.474,0.053,0.717,0.088c0.118,0.031,0.247,0.017,0.368,0.027
									c0.123,0.002,0.243,0.018,0.36,0.026c0.233,0.018,0.452,0.064,0.641,0.089c0.377,0.066,0.635,0.15,0.635,0.15
									s-0.25,0.077-0.635,0.131c-0.191,0.019-0.418,0.059-0.66,0.069c-0.121,0.005-0.247,0.017-0.374,0.016
									c-0.127-0.005-0.256,0.016-0.387-0.012c-0.52-0.103-1.027-0.173-1.392-0.39c-0.183-0.094-0.318-0.185-0.405-0.252
									C235.673,117.807,235.63,117.756,235.63,117.756z"/>
							</g>
							<g>
								<path style="fill:#606060;" d="M237.688,120.454c0,0,0.382,0.259,0.961,0.605c0.288,0.175,0.634,0.36,1.008,0.54
									c0.371,0.188,0.779,0.353,1.192,0.492c0.207,0.065,0.417,0.124,0.625,0.174c0.21,0.023,0.414,0.095,0.616,0.098
									c0.201,0.004,0.4,0.05,0.585,0.03c0.184-0.016,0.368,0.006,0.526-0.039c0.16-0.035,0.311-0.057,0.447-0.076
									c0.131-0.04,0.244-0.076,0.338-0.104c0.193-0.056,0.304-0.088,0.304-0.088s-0.096,0.064-0.263,0.176
									c-0.168,0.117-0.422,0.262-0.764,0.366c-0.164,0.073-0.358,0.081-0.558,0.128c-0.202,0.052-0.418,0.041-0.643,0.046
									c-0.448-0.001-0.918-0.099-1.37-0.237c-0.443-0.16-0.878-0.346-1.247-0.582c-0.379-0.219-0.692-0.482-0.962-0.698
									C237.96,120.83,237.688,120.454,237.688,120.454z"/>
							</g>
							<g>
								<path style="fill:#606060;" d="M236.127,122.299c0,0,0.594-0.441,1.284-0.748c0.344-0.155,0.715-0.26,1.007-0.317
									c0.304-0.021,0.506-0.034,0.506-0.034l-0.059,0.496c0,0-0.165-0.017-0.413-0.042c-0.257,0.007-0.607,0.043-0.959,0.133
									C236.791,121.964,236.127,122.299,236.127,122.299z"/>
							</g>
							<g>
								<path style="fill:#606060;" d="M237.333,116.833c0,0,0.207,0.096,0.493,0.224c0.143,0.066,0.313,0.133,0.491,0.204
									c0.181,0.065,0.36,0.158,0.558,0.213c0.186,0.081,0.379,0.145,0.564,0.2c0.184,0.059,0.351,0.146,0.505,0.174
									c0.303,0.09,0.514,0.192,0.514,0.192s-0.215,0.06-0.55,0.086c-0.331,0.02-0.79-0.015-1.207-0.185
									c-0.213-0.072-0.411-0.182-0.59-0.294c-0.18-0.108-0.319-0.255-0.445-0.362
									C237.427,117.044,237.333,116.833,237.333,116.833z"/>
							</g>
						</g>
						<g>
							<ellipse style="fill:#606060;" cx="265.551" cy="120.558" rx="1.37" ry="2.03"/>
							<g>
								<path style="fill:#606060;" d="M270.767,119.507c0,0-0.146-0.05-0.4-0.115c-0.246-0.079-0.605-0.163-1.023-0.276
									c-0.205-0.066-0.44-0.098-0.679-0.156c-0.242-0.048-0.489-0.117-0.751-0.164c-0.263-0.041-0.536-0.071-0.808-0.126
									c-0.271-0.066-0.551-0.09-0.832-0.098c-0.28-0.028-0.56-0.056-0.835-0.083c-0.276-0.038-0.548-0.005-0.813-0.012
									c-0.265,0.007-0.523-0.005-0.77-0.013c-0.249-0.021-0.477,0.016-0.692,0.035c-0.855,0.085-1.483,0.063-1.483,0.063
									s0.516-0.298,1.375-0.627c0.215-0.083,0.446-0.188,0.707-0.211c0.258-0.044,0.531-0.094,0.817-0.126
									c0.285-0.02,0.582-0.112,0.883-0.074c0.302,0.018,0.608,0.036,0.915,0.055c0.308,0.021,0.611,0.062,0.903,0.143
									c0.296,0.064,0.58,0.153,0.856,0.226c0.275,0.076,0.524,0.21,0.766,0.31c0.24,0.104,0.466,0.204,0.658,0.332
									C270.361,119.038,270.767,119.507,270.767,119.507z"/>
							</g>
							<g>
								<path style="fill:#606060;" d="M272.258,117.756c0,0-0.042,0.051-0.123,0.13c-0.087,0.067-0.224,0.159-0.405,0.252
									c-0.364,0.217-0.873,0.287-1.393,0.39c-0.13,0.027-0.259,0.006-0.386,0.012c-0.127,0.002-0.253-0.011-0.374-0.016
									c-0.242-0.011-0.469-0.05-0.66-0.069c-0.385-0.055-0.635-0.131-0.635-0.131s0.258-0.084,0.635-0.15
									c0.189-0.025,0.407-0.071,0.641-0.089c0.117-0.008,0.237-0.024,0.36-0.026c0.121-0.011,0.249,0.004,0.368-0.027
									c0.243-0.035,0.485-0.071,0.717-0.088c0.234-0.018,0.456-0.013,0.623-0.066c0.174-0.041,0.346-0.039,0.455-0.073
									C272.191,117.771,272.258,117.756,272.258,117.756z"/>
							</g>
							<g>
								<path style="fill:#606060;" d="M270.199,120.454c0,0-0.272,0.376-0.797,0.832c-0.27,0.216-0.583,0.479-0.961,0.699
									c-0.37,0.236-0.804,0.421-1.248,0.582c-0.451,0.138-0.921,0.235-1.37,0.237c-0.224-0.005-0.44,0.005-0.642-0.046
									c-0.2-0.047-0.394-0.055-0.559-0.128c-0.341-0.104-0.595-0.249-0.763-0.366c-0.167-0.112-0.263-0.176-0.263-0.176
									s0.11,0.032,0.304,0.088c0.094,0.029,0.207,0.064,0.338,0.104c0.136,0.019,0.287,0.041,0.447,0.076
									c0.158,0.045,0.342,0.023,0.526,0.039c0.186,0.021,0.383-0.026,0.584-0.03c0.202-0.003,0.406-0.075,0.617-0.098
									c0.207-0.049,0.417-0.108,0.624-0.174c0.414-0.14,0.822-0.304,1.192-0.492c0.374-0.181,0.72-0.365,1.008-0.54
									C269.817,120.713,270.199,120.454,270.199,120.454z"/>
							</g>
							<g>
								<path style="fill:#606060;" d="M271.761,122.299c0,0-0.664-0.335-1.367-0.513c-0.351-0.09-0.702-0.126-0.959-0.133
									c-0.248,0.025-0.413,0.042-0.413,0.042l-0.059-0.496c0,0,0.202,0.013,0.507,0.034c0.291,0.057,0.662,0.163,1.006,0.317
									C271.167,121.857,271.761,122.299,271.761,122.299z"/>
							</g>
							<g>
								<path style="fill:#606060;" d="M270.554,116.833c0,0-0.094,0.21-0.332,0.453c-0.125,0.107-0.266,0.254-0.445,0.362
									c-0.179,0.111-0.376,0.221-0.589,0.294c-0.417,0.169-0.876,0.205-1.207,0.185c-0.335-0.027-0.55-0.086-0.55-0.086
									s0.211-0.102,0.514-0.192c0.154-0.028,0.321-0.115,0.504-0.174c0.185-0.056,0.377-0.119,0.564-0.2
									c0.196-0.055,0.376-0.148,0.558-0.213c0.178-0.071,0.348-0.138,0.49-0.204C270.347,116.929,270.554,116.833,270.554,116.833
									z"/>
							</g>
						</g>
					</g>
					<path style="fill:#ED815C;" d="M250.56,182.541c-14.756-0.501-30.097-1.326-38.425,6.625
						c-8.329,7.95,17.225,77.041,17.225,77.041l48.458-0.379c0,0,19.951-58.38,16.09-73.823
						C291.257,181.405,272.897,183.298,250.56,182.541z"/>
				</g>
				<path style="fill:#ED815C;" d="M379.321,201.131c0,0-17.415,18.929-29.529,29.529c-2.16,1.891-3.993,3.613-5.561,5.187
					l-53.876-49.102v31.422c0,0,50.611,45.204,54.895,45.429c7.192,0.379,16.278-10.6,23.472-22.714
					c4.382-7.38,17.793-31.801,17.793-31.801L379.321,201.131z"/>
				<path style="fill:#ED815C;" d="M212.135,189.166l-41.791,49.444l-25.364-44.294l-12.872,4.164c0,0,24.986,70.416,36.344,71.173
					c11.357,0.757,48.837-46.944,48.837-46.944L212.135,189.166z"/>
				<path style="fill:#ED815C;" d="M144.98,194.316c2.65-6.814-6.057-19.307-8.708-17.036c-2.649,2.271,4.923,10.222,0,7.572
					c-4.921-2.65,0.619-12.249-1.652-13.006c-2.271-0.757-7.57,1.682-10.841,11.492c-3.028,9.086,6.058,18.172,10.601,17.794
					C138.923,200.752,144.98,194.316,144.98,194.316z"/>
				<path style="fill:#ED815C;" d="M377.901,202.834c-1.085-5.434,5.446-17.928,8.002-19.347c2.555-1.42,0,8.518,0,8.518
					s6.814-13.061,9.653-12.493c2.839,0.568-3.407,8.802-3.407,8.802s6.814-9.654,9.086-7.666
					c2.271,1.987-4.827,11.073-4.827,11.073s7.099-7.666,8.518-5.11c1.42,2.555-6.246,9.654-6.246,9.654s6.53-3.691,6.814-1.704
					c0.284,1.987-15.049,18.456-23.282,13.628C373.98,203.365,377.901,202.834,377.901,202.834z"/>
				<polygon style="fill:#606060;" points="117.3,173.833 154.021,196.548 156.672,192.384 119.191,168.533 				"/>
				<path style="fill:#BA4567;" d="M102.157,175.348l15.143-1.515l2.649-4.543l-7.571-12.493
					C112.378,156.797,97.991,157.555,102.157,175.348z"/>
				<path style="fill:#BA4567;" d="M238.824,94.142c0,0-10.222,16.658-10.601,32.937c-0.379,16.279,4.732,39.94,3.407,49.026
					c-1.324,9.086-10.222,14.954-16.657,13.818c-6.436-1.136-10.79-3.028-7.762-10.979c3.029-7.95,9.465-19.308,7.572-38.615
					c-1.893-19.308,7.571-59.627,20.822-57.166c0,0,13.629-17.983,38.993-0.757c19.051,12.938,6.625,44.862,6.625,44.862
					s-5.3-15.9-22.147-19.308C242.37,104.581,238.824,94.142,238.824,94.142z"/>
				<path style="fill:#BA4567;" d="M284.253,109.38c0,0,0-10.222-1.135-15.332c-1.136-5.111,4.543,5.962,4.543,9.937
					C287.661,107.96,284.253,109.38,284.253,109.38z"/>
				<path style="fill:#F5B800;" d="M179.482,226.645l16.753,20.16c0,0,14.48-13.913,17.604-15.049
					c4.4-1.601,10.506,34.924,10.506,34.924l54.231,1.135c0,0,13.913-40.603,17.888-39.183c3.976,1.419,19.876,12.777,19.876,12.777
					l16.752-17.036l-21.863-19.023c0,0-60.194-7.95-74.107-23.567c0,0-16.752-4.542-24.418,4.828
					C205.035,195.98,179.482,226.645,179.482,226.645z"/>
				<g>
					
						<rect x="371.685" y="181.03" transform="matrix(0.8709 0.4915 -0.4915 0.8709 145.0522 -168.5622)" style="fill:#606060;" width="43.27" height="21.482"/>
					<path style="fill:#BA4567;" d="M389.299,185.329c-0.9,1.596-3.646,1.751-6.133,0.347c-2.487-1.403-3.773-3.835-2.873-5.43
						c0.901-1.596,3.647-1.75,6.134-0.347C388.913,181.303,390.199,183.734,389.299,185.329z"/>
					<path style="fill:#9F7873;" d="M385.417,192.207c-0.9,1.596-3.646,1.751-6.134,0.348c-2.485-1.404-3.772-3.835-2.872-5.43
						c0.901-1.595,3.646-1.751,6.134-0.347C385.031,188.181,386.317,190.612,385.417,192.207z"/>
					<path style="fill:#ED815C;" d="M399.727,191.215c-0.9,1.596-3.646,1.751-6.133,0.348c-2.486-1.404-3.773-3.835-2.873-5.43
						s3.646-1.75,6.134-0.347C399.341,187.188,400.627,189.62,399.727,191.215z"/>
					<path style="fill:#F4947A;" d="M395.845,198.093c-0.9,1.596-3.646,1.751-6.134,0.347c-2.486-1.403-3.772-3.835-2.871-5.43
						c0.9-1.595,3.646-1.751,6.133-0.347C395.459,194.067,396.746,196.497,395.845,198.093z"/>
					<path style="fill:#D8E2EA;" d="M410.154,197.1c-0.899,1.596-3.646,1.752-6.133,0.347c-2.487-1.403-3.773-3.834-2.872-5.43
						c0.9-1.596,3.645-1.751,6.133-0.348C409.769,193.074,411.056,195.505,410.154,197.1z"/>
					<path style="fill:#BCBCBC;" d="M406.272,203.979c-0.9,1.596-3.646,1.751-6.133,0.347c-2.486-1.404-3.773-3.835-2.872-5.43
						c0.9-1.595,3.645-1.75,6.133-0.347C405.887,199.952,407.174,202.383,406.272,203.979z"/>
				</g>
				<rect x="183.571" y="266.065" style="fill:#606060;" width="137.682" height="9.41"/>
				<rect x="178.346" y="281.085" style="fill:#AAB2BC;" width="98.077" height="8.878"/>
				<rect x="186.891" y="294.046" style="fill:#AAB2BC;" width="126.539" height="9.545"/>
				<rect x="186.891" y="312.046" style="fill:#D8E2EA;" width="126.539" height="4.678"/>
				<rect x="186.891" y="321.583" style="fill:#D8E2EA;" width="112.583" height="4.511"/>
				<g>
					<rect x="216.28" y="336.253" style="fill:#D8E2EA;" width="87.471" height="4.038"/>
					<rect x="216.28" y="344.771" style="fill:#D8E2EA;" width="87.471" height="4.038"/>
				</g>
				<g>
					<rect x="216.28" y="363.511" style="fill:#D8E2EA;" width="87.471" height="4.038"/>
					<rect x="216.28" y="372.029" style="fill:#D8E2EA;" width="87.471" height="4.038"/>
				</g>
				<g>
					<rect x="216.28" y="391.62" style="fill:#D8E2EA;" width="87.471" height="4.038"/>
					<rect x="216.28" y="400.138" style="fill:#D8E2EA;" width="87.471" height="4.038"/>
				</g>
				<path style="fill:#D8E2EA;" d="M210.431,342.089c0,5.488-4.449,9.938-9.938,9.938c-5.488,0-9.938-4.449-9.938-9.938
					c0-5.489,4.449-9.938,9.938-9.938C205.982,332.151,210.431,336.6,210.431,342.089z"/>
				<path style="fill:#D8E2EA;" d="M210.431,369.347c0,5.489-4.449,9.938-9.938,9.938c-5.488,0-9.938-4.449-9.938-9.938
					c0-5.488,4.449-9.937,9.938-9.937C205.982,359.41,210.431,363.858,210.431,369.347z"/>
				<path style="fill:#D8E2EA;" d="M210.431,399.444c0,5.488-4.449,9.938-9.938,9.938c-5.488,0-9.938-4.45-9.938-9.938
					c0-5.489,4.449-9.938,9.938-9.938C205.982,389.506,210.431,393.956,210.431,399.444z"/>
			</g>
			<g>
				<path style="fill:#F5B800;" d="M167.872,152.451c16.705-5.967,28.362-19.417,28.362-35.063
					c0-21.185-21.357-38.358-47.702-38.358c-26.345,0-47.701,17.173-47.701,38.358c0,21.185,21.356,38.357,47.701,38.357
					c3.678,0,7.253-0.346,10.691-0.979c8.22,7.379,19.933,12.19,33.055,12.73C182.222,164.765,173.667,159.413,167.872,152.451z"/>
				<path style="fill:#BA4567;" d="M148.516,108.677c0,0-14.171-14.878-22.673,0c-9.445,16.529,26.215,34.717,26.215,34.717
					s30.639-21.716,19.13-36.842C161.026,93.196,148.516,108.677,148.516,108.677z"/>
				<g>
					<path style="fill:#FFFFFF;" d="M168.541,127.016l1.003-3.723l1.003,3.723c0.252,0.938,0.984,1.671,1.923,1.923l3.723,1.003
						l-3.723,1.002c-0.938,0.252-1.671,0.985-1.923,1.922l-1.003,3.724l-1.003-3.724c-0.253-0.938-0.985-1.67-1.923-1.922
						l-3.723-1.002l3.723-1.003C167.556,128.687,168.288,127.954,168.541,127.016z"/>
					<path style="fill:#FFFFFF;" d="M182.117,117.121l0.85-3.154l0.849,3.154c0.214,0.794,0.834,1.415,1.629,1.629l3.154,0.849
						l-3.154,0.849c-0.795,0.214-1.415,0.835-1.629,1.629l-0.849,3.153l-0.85-3.153c-0.214-0.794-0.835-1.415-1.629-1.629
						l-3.153-0.849l3.153-0.849C181.282,118.536,181.903,117.915,182.117,117.121z"/>
					<path style="fill:#FFFFFF;" d="M115.601,103.005l0.85-3.154l0.85,3.154c0.213,0.795,0.834,1.415,1.629,1.629l3.153,0.849
						l-3.153,0.849c-0.795,0.214-1.416,0.835-1.629,1.629l-0.85,3.154l-0.85-3.154c-0.213-0.794-0.834-1.415-1.628-1.629
						l-3.153-0.849l3.153-0.849C114.767,104.419,115.388,103.799,115.601,103.005z"/>
				</g>
			</g>
			<path style="fill:#FFFFFF;" d="M282.551,135.928c0,1.176-0.891,2.129-1.988,2.129c-1.097,0-1.987-0.954-1.987-2.129
				c0-1.177,0.891-2.13,1.987-2.13C281.66,133.798,282.551,134.751,282.551,135.928z"/>
			<g>
				<path style="fill:#ED815C;" d="M291.534,435.634c0,0,9.503-49.888,27.32-61.766c17.816-11.878,4.751-38.01,4.751-38.01
					s-18.214-6.986-26.528-21.24c-4.939-8.464,1.93-17.379,12.551-14.482c11.943,3.257,29.729,5.732,33.588,7.662
					c9.503,4.751,21.013,36.715,22.2,48.594c1.189,11.878-4.987,51.922-2.613,67.364
					C365.18,439.198,305.788,452.264,291.534,435.634z"/>
				<g>
					<path style="fill:#606060;" d="M295.329,444.409c0,0-0.512-2.327-0.903-5.868c-0.204-1.77-0.377-3.841-0.476-6.067
						c-0.043-1.113-0.097-2.264-0.091-3.435c-0.005-1.171,0.014-2.361,0.046-3.552c0.102-2.38,0.287-4.764,0.641-6.982
						c0.164-1.111,0.374-2.178,0.621-3.182c0.228-1.006,0.513-1.946,0.822-2.796c0.296-0.854,0.632-1.618,0.983-2.267
						c0.161-0.33,0.335-0.629,0.518-0.893c0.173-0.268,0.327-0.515,0.503-0.715c0.167-0.204,0.316-0.385,0.445-0.543
						c0.15-0.139,0.277-0.258,0.381-0.354c0.204-0.189,0.314-0.29,0.314-0.29s-0.086,0.122-0.247,0.349
						c-0.079,0.112-0.177,0.251-0.291,0.414c-0.096,0.175-0.205,0.376-0.327,0.602c-0.133,0.216-0.239,0.48-0.358,0.763
						c-0.124,0.28-0.256,0.581-0.362,0.921c-0.241,0.664-0.455,1.435-0.654,2.282c-0.796,3.396-1.19,8.067-1.35,12.753
						c-0.103,2.344-0.122,4.694-0.151,6.901c-0.011,2.21-0.022,4.273-0.029,6.041C295.343,442.04,295.329,444.409,295.329,444.409z"
						/>
				</g>
				<g>
					<path style="fill:#606060;" d="M297.779,307.656c1.655,0.624,3.275,1.315,4.878,2.039c1.604,0.719,3.195,1.465,4.767,2.248
						c1.58,0.765,3.134,1.581,4.692,2.388l2.318,1.247c0.771,0.417,1.543,0.835,2.304,1.274l-1.06,0.408
						c0.686-1.754,1.404-3.498,2.159-5.228c0.75-1.731,1.542-3.448,2.41-5.136c-0.42,1.852-0.915,3.676-1.452,5.485
						c-0.533,1.811-1.102,3.607-1.703,5.393l-0.267,0.792l-0.793-0.384c-0.79-0.383-1.569-0.786-2.348-1.191l-2.334-1.218
						c-1.542-0.836-3.09-1.664-4.61-2.542c-1.529-0.861-3.04-1.759-4.536-2.683C300.706,309.627,299.226,308.675,297.779,307.656z"
						/>
				</g>
				<g>
					<path style="fill:#606060;" d="M332.273,306.95c0,0,1.42-0.109,3.526,0.104c1.053,0.098,2.276,0.277,3.572,0.56
						c0.646,0.15,1.319,0.289,1.986,0.498c0.671,0.196,1.347,0.421,2.02,0.661c1.331,0.515,2.643,1.129,3.777,1.894
						c0.579,0.36,1.094,0.791,1.56,1.221c0.471,0.425,0.855,0.9,1.177,1.355c0.146,0.242,0.289,0.469,0.408,0.693
						c0.098,0.236,0.19,0.459,0.277,0.669c0.132,0.438,0.209,0.819,0.218,1.142c0.049,0.314-0.017,0.567-0.022,0.731
						c-0.017,0.164-0.025,0.252-0.025,0.252s-0.022-0.086-0.064-0.247c-0.048-0.159-0.083-0.394-0.208-0.668
						c-0.091-0.283-0.271-0.594-0.466-0.941c-0.119-0.161-0.245-0.332-0.379-0.513c-0.148-0.166-0.306-0.34-0.469-0.522
						c-0.36-0.337-0.763-0.678-1.226-1.005c-0.465-0.322-0.976-0.633-1.526-0.93c-0.541-0.309-1.144-0.559-1.74-0.843
						c-0.604-0.271-1.232-0.521-1.87-0.753c-1.266-0.494-2.57-0.904-3.796-1.3c-1.238-0.378-2.395-0.73-3.385-1.033
						C333.623,307.385,332.273,306.95,332.273,306.95z"/>
				</g>
			</g>
			<g>
				<path style="fill:#ED815C;" d="M108.712,563.393l51.653-79.903c0,0,46.876-22.622,55.458-37.336
					c16.578-28.428,32.932-49.825,39.711-68.379c2.301-6.296,1.443-24.37-20.694-9.634c-22.137,14.737-34.215,54.039-39.727,37.141
					c-3.351-10.269,1.633-26.039,8.436-55.753c6.804-29.714,30.256-77.507,18.287-84.417
					c-20.066-11.585-50.866,94.678-50.866,94.678s11.553-46.847-3.434-48.737c-20.263-2.555-18.583,44.738-18.583,44.738
					s4.346-41.743-9.211-41.72c-13.556,0.023-15.784,38.681-15.784,38.681s5.139-28.609-7.426-28.36
					c-12.567,0.25-19.531,23.795-23.84,42.614c-4.309,18.819-5.392,84.921-11.396,92.928c-6.003,8.007-57.537,82.967-57.537,82.967
					L108.712,563.393z"/>
				<g>
					<path style="fill:#606060;" d="M248.472,366.169c-0.874,1.507-1.808,2.97-2.77,4.41c-0.958,1.443-1.941,2.868-2.955,4.268
						c-0.999,1.412-2.043,2.79-3.079,4.173l-1.588,2.051c-0.529,0.684-1.061,1.365-1.61,2.033L236.23,382
						c2.243,1.249,4.471,2.526,6.682,3.837c2.212,1.308,4.403,2.653,6.558,4.069c-2.375-1.001-4.714-2.073-7.031-3.182
						c-2.319-1.107-4.62-2.246-6.906-3.415l-0.751-0.384l0.511-0.721c0.5-0.706,1.018-1.398,1.537-2.088l1.561-2.071
						c1.063-1.364,2.117-2.734,3.217-4.069c1.084-1.347,2.2-2.669,3.341-3.974C246.082,368.694,247.247,367.409,248.472,366.169z"/>
				</g>
				<g>
					<path style="fill:#606060;" d="M207.722,276.798c0.956,0.279,1.895,0.596,2.826,0.928c0.931,0.332,1.855,0.678,2.771,1.042
						c1.834,0.727,3.651,1.488,5.44,2.31l-0.926,0.193c0.174-0.212,0.373-0.472,0.55-0.724l0.53-0.778
						c0.35-0.523,0.676-1.065,0.982-1.618c0.6-1.112,1.157-2.253,1.582-3.45c0.248-0.586,0.416-1.199,0.614-1.807
						c0.145-0.618,0.354-1.229,0.453-1.863c0.143-0.628,0.24-1.265,0.321-1.91c0.107-0.645,0.114-1.295,0.198-1.957
						c0.109,0.646,0.263,1.303,0.299,1.967c0.042,0.665,0.085,1.336,0.036,2.005c-0.011,0.673-0.109,1.338-0.194,2.009
						c-0.137,0.658-0.247,1.328-0.441,1.975c-0.173,0.655-0.412,1.287-0.645,1.923c-0.247,0.63-0.526,1.248-0.842,1.848
						c-0.315,0.6-0.652,1.188-1.018,1.761c-0.186,0.286-0.382,0.563-0.587,0.838c-0.205,0.279-0.409,0.536-0.657,0.825l-0.386,0.449
						l-0.54-0.256c-1.779-0.843-3.529-1.747-5.265-2.685c-0.867-0.469-1.727-0.955-2.579-1.456
						C209.395,277.867,208.55,277.351,207.722,276.798z"/>
				</g>
			</g>
		</g>
		<g style="clip-path:url(#SVGID_00000005236944021052870450000012260163845113673104_);">
			<path style="fill:#F5B800;" d="M408.068,233.175c-13.097,5.16-22.234,16.791-22.234,30.322c0,18.32,16.742,33.171,37.395,33.171
				c20.652,0,37.395-14.852,37.395-33.171c0-18.32-16.742-33.171-37.395-33.171c-2.883,0-5.685,0.299-8.382,0.847
				c-6.443-6.381-15.626-10.542-25.913-11.009C396.818,222.525,403.524,227.154,408.068,233.175z"/>
			
				<text transform="matrix(1 0 0 1 403.6807 269.1382)" style="fill:#FFFFFF; font-family:'Montserrat-Bold'; font-size:21.3314px;">$$$</text>
		</g>
		<g style="clip-path:url(#SVGID_00000005236944021052870450000012260163845113673104_);">
			<path style="fill:#F5B800;" d="M118.615,207.174c6.144-6.397,14.026-11.549,23.045-14.929c-0.211-0.002-0.419-0.014-0.631-0.014
				c-13.529,0-26.036,3.684-36.226,9.916c-5.509-1.359-11.328-2.102-17.356-2.102c-34.216,0-61.953,23.489-61.953,52.465
				c0,28.976,27.737,52.465,61.953,52.465c34.216,0,61.953-23.49,61.953-52.465C149.401,233.161,137.023,216.27,118.615,207.174z"/>
			<text transform="matrix(1 0 0 1 54.3814 261.6787)" style="fill:#FFFFFF; font-family:'Montserrat-Bold'; font-size:25.7748px;">NICE</text>
		</g>
		<g style="clip-path:url(#SVGID_00000005236944021052870450000012260163845113673104_);">
			<path style="fill:#F5B800;" d="M396.657,50.464c-34.217,0-61.954,23.489-61.954,52.465c0,19.35,12.379,36.241,30.787,45.336
				c-6.143,6.397-14.026,11.549-23.045,14.93c0.211,0.002,0.419,0.014,0.631,0.014c13.529,0,26.036-3.684,36.226-9.916
				c5.509,1.359,11.328,2.102,17.355,2.102c34.216,0,61.953-23.489,61.953-52.465C458.61,73.954,430.873,50.464,396.657,50.464z"/>
			
				<text transform="matrix(1 0 0 1 360.2412 112.0971)" style="fill:#FFFFFF; font-family:'Montserrat-Bold'; font-size:25.7748px;">BEST!</text>
		</g>
	</g>
</g>
</svg>
